<svg xmlns="http://www.w3.org/2000/svg" width="21.995" height="23.034" viewBox="0 0 21.995 23.034"><defs><style>.a{fill:#c5c5c5;}</style></defs><path class="a" d="M6.958,23.034a5.777,5.777,0,0,1-4.085-9.855L14.82,1.232A4.279,4.279,0,0,1,21,1.413a4.278,4.278,0,0,1,.181,6.178L9.956,18.814a2.7,2.7,0,0,1-3.825-3.825l7.6-7.6a.656.656,0,0,1,.928.928l-7.6,7.6a1.392,1.392,0,1,0,1.968,1.968L20.251,6.662a3,3,0,0,0-.181-4.321,3,3,0,0,0-4.321-.181L3.8,14.107a4.464,4.464,0,0,0,6.312,6.312L22.061,8.473a.656.656,0,0,1,.928.928L11.042,21.348A5.736,5.736,0,0,1,6.958,23.034Z" transform="translate(-1.187)"/></svg>