<svg xmlns="http://www.w3.org/2000/svg" width="15.891" height="20.045" viewBox="0 0 15.891 20.045"><defs><style>.a{fill:#f70;}</style></defs><path class="a" d="M13.542,1.214H7.537a2.348,2.348,0,0,0-4.111,0H2.349A2.352,2.352,0,0,0,0,3.563V17.7a2.352,2.352,0,0,0,2.349,2.349H13.542A2.352,2.352,0,0,0,15.891,17.7V3.563a2.352,2.352,0,0,0-2.349-2.349ZM14.325,17.7a.784.784,0,0,1-.783.783H2.349a.784.784,0,0,1-.783-.783V3.563a.784.784,0,0,1,.783-.783H6.264v5.6a.783.783,0,0,1-1.566,0V4.62H3.132V8.378a2.349,2.349,0,0,0,4.7,0V2.78h5.712a.784.784,0,0,1,.783.783V17.7ZM3.132,15.347h6.46v1.566H3.132Zm0-3.093h9.592V13.82H3.132ZM9.357,9.2h3.367v1.566H9.357Zm0-3.093h3.367V7.674H9.357Zm0,0" transform="translate(0)"/></svg>