<svg xmlns="http://www.w3.org/2000/svg" width="10.408" height="13.287" viewBox="0 0 10.408 13.287"><defs><style>.a{fill:#ababab;}</style></defs><g transform="translate(-6.5)"><path class="a" d="M22.258,22H16.721a.221.221,0,1,0,0,.443h5.536a.221.221,0,1,0,0-.443Z" transform="translate(-7.785 -17.128)"/><path class="a" d="M16.721,14.443h2.215a.221.221,0,1,0,0-.443H16.721a.221.221,0,1,0,0,.443Z" transform="translate(-7.785 -10.9)"/><path class="a" d="M22.258,30H16.721a.221.221,0,1,0,0,.443h5.536a.221.221,0,1,0,0-.443Z" transform="translate(-7.785 -23.356)"/><path class="a" d="M22.258,38H16.721a.221.221,0,1,0,0,.443h5.536a.221.221,0,1,0,0-.443Z" transform="translate(-7.785 -29.585)"/><path class="a" d="M22.258,46H16.721a.221.221,0,1,0,0,.443h5.536a.221.221,0,1,0,0-.443Z" transform="translate(-7.785 -35.813)"/><path class="a" d="M13.678,0H6.5V13.287H16.908V3.23Zm.13.756L16.152,3.1H13.808ZM6.943,12.844V.443h6.422v3.1h3.1v9.3Z" transform="translate(0)"/></g></svg>